<svg xmlns="http://www.w3.org/2000/svg" viewBox="0 0 1000 520" role="img">
<rect width="100%" height="100%" fill="white"/>
<text x="500.0" y="24" text-anchor="middle" font-family="Arial" font-size="18" font-weight="700">Fixed ensemble drawdown</text>
<text x="18" y="260.0" transform="rotate(-90 18 260.0)" text-anchor="middle" font-family="Arial" font-size="12">Percent</text>
<line x1="70" y1="465" x2="965" y2="465" stroke="#333"/>
<line x1="70" y1="35" x2="70" y2="465" stroke="#333"/>
<line x1="70" y1="465.0" x2="965" y2="465.0" stroke="#ddd"/>
<text x="62" y="469.0" text-anchor="end" font-family="Arial" font-size="11">-5.34</text>
<line x1="70" y1="357.5" x2="965" y2="357.5" stroke="#ddd"/>
<text x="62" y="361.5" text-anchor="end" font-family="Arial" font-size="11">-3.91</text>
<line x1="70" y1="250.0" x2="965" y2="250.0" stroke="#ddd"/>
<text x="62" y="254.0" text-anchor="end" font-family="Arial" font-size="11">-2.47</text>
<line x1="70" y1="142.5" x2="965" y2="142.5" stroke="#ddd"/>
<text x="62" y="146.5" text-anchor="end" font-family="Arial" font-size="11">-1.04</text>
<line x1="70" y1="35.0" x2="965" y2="35.0" stroke="#ddd"/>
<text x="62" y="39.0" text-anchor="end" font-family="Arial" font-size="11">0.40</text>
<polyline fill="none" stroke="#5B7FF5" stroke-width="1.8" points="70.0,64.7 73.8,64.7 77.6,67.5 81.5,64.7 85.3,64.7 89.1,67.2 92.9,64.7 96.8,64.7 100.6,64.7 104.4,64.7 108.2,89.2 112.1,98.0 115.9,144.8 119.7,106.4 123.5,96.5 127.4,149.3 131.2,157.6 135.0,218.1 138.8,214.9 142.7,230.1 146.5,252.4 150.3,145.4 154.1,127.7 158.0,113.0 161.8,154.1 165.6,104.7 169.4,96.5 173.3,194.7 177.1,147.1 180.9,182.2 184.7,179.0 188.6,192.4 192.4,117.7 196.2,92.3 200.0,64.7 203.9,135.5 207.7,185.1 211.5,133.2 215.3,64.7 219.2,64.7 223.0,98.4 226.8,119.7 230.6,207.8 234.5,175.8 238.3,159.9 242.1,91.4 245.9,73.3 249.8,85.1 253.6,95.7 257.4,64.7 261.2,88.1 265.1,64.7 268.9,80.1 272.7,142.5 276.5,127.1 280.4,99.8 284.2,82.6 288.0,169.5 291.8,175.2 295.7,154.6 299.5,92.7 303.3,79.4 307.1,64.7 311.0,64.7 314.8,64.7 318.6,69.7 322.4,64.7 326.3,64.7 330.1,114.3 333.9,169.0 337.7,156.3 341.6,141.3 345.4,86.9 349.2,99.2 353.0,64.7 356.9,64.7 360.7,75.8 364.5,64.7 368.3,64.7 372.2,147.3 376.0,64.7 379.8,64.7 383.6,64.7 387.5,64.7 391.3,161.0 395.1,100.1 398.9,126.6 402.8,107.9 406.6,64.7 410.4,72.1 414.2,90.4 418.1,64.7 421.9,112.4 425.7,83.6 429.5,64.7 433.4,64.7 437.2,64.7 441.0,152.7 444.8,112.1 448.7,218.8 452.5,182.1 456.3,260.4 460.1,186.8 464.0,268.0 467.8,247.9 471.6,191.3 475.4,161.1 479.3,139.7 483.1,138.7 486.9,66.4 490.7,160.5 494.6,199.2 498.4,262.2 502.2,158.4 506.0,91.2 509.9,123.8 513.7,143.2 517.5,237.3 521.3,198.0 525.1,143.4 529.0,172.6 532.8,131.2 536.6,155.8 540.4,163.1 544.3,152.2 548.1,155.0 551.9,87.1 555.7,64.7 559.6,93.9 563.4,64.7 567.2,64.7 571.0,64.7 574.9,64.7 578.7,143.3 582.5,235.8 586.3,204.5 590.2,166.0 594.0,183.1 597.8,137.3 601.6,64.7 605.5,64.7 609.3,248.4 613.1,282.7 616.9,319.2 620.8,383.8 624.6,422.7 628.4,401.9 632.2,435.3 636.1,339.8 639.9,290.8 643.7,277.8 647.5,187.9 651.4,224.4 655.2,215.9 659.0,258.6 662.8,258.1 666.7,195.7 670.5,270.0 674.3,70.0 678.1,64.7 682.0,74.9 685.8,84.3 689.6,64.7 693.4,64.7 697.3,123.8 701.1,199.9 704.9,335.6 708.7,141.7 712.6,108.0 716.4,64.7 720.2,64.7 724.0,64.7 727.9,113.4 731.7,76.3 735.5,74.0 739.3,64.7 743.2,141.9 747.0,64.7 750.8,168.0 754.6,118.3 758.5,225.1 762.3,261.9 766.1,100.3 769.9,105.4 773.8,114.3 777.6,99.1 781.4,64.7 785.2,64.7 789.1,64.7 792.9,73.8 796.7,124.3 800.5,105.9 804.4,182.0 808.2,261.8 812.0,190.2 815.8,162.1 819.7,180.5 823.5,194.3 827.3,229.5 831.1,295.7 835.0,383.3 838.8,269.5 842.6,248.1 846.4,167.9 850.3,176.9 854.1,64.7 857.9,64.7 861.7,116.2 865.6,74.7 869.4,64.7 873.2,64.7 877.0,64.7 880.9,64.7 884.7,64.7 888.5,64.7 892.3,138.9 896.2,64.7 900.0,70.7 903.8,64.7 907.6,64.7 911.5,160.6 915.3,87.4 919.1,224.6 922.9,213.3 926.8,74.3 930.6,64.7 934.4,87.5 938.2,64.7 942.1,64.7 945.9,64.7 949.7,287.5 953.5,240.3 957.4,203.8 961.2,171.5 965.0,229.3"/>
<line x1="110" y1="492" x2="132" y2="492" stroke="#5B7FF5" stroke-width="3"/>
<text x="138" y="496" font-family="Arial" font-size="11">ensemble</text>
</svg>