<svg xmlns="http://www.w3.org/2000/svg" width="900" height="430" viewBox="0 0 900 430"><style>text{font-family:Arial,sans-serif;fill:#202124}.t{font-size:22px;font-weight:700}.l{font-size:13px}.g{stroke:#ddd;stroke-width:1}.z{stroke:#555;stroke-width:1.5}</style><text x="450.0" y="30" text-anchor="middle" class="t">Manifold alpha and beta</text><line x1="70" y1="350.0" x2="875" y2="350.0" class="g"/><text x="62" y="354.0" text-anchor="end" class="l">-0.08</text><line x1="70" y1="276.2" x2="875" y2="276.2" class="g"/><text x="62" y="280.2" text-anchor="end" class="l">-0.04</text><line x1="70" y1="202.5" x2="875" y2="202.5" class="g"/><text x="62" y="206.5" text-anchor="end" class="l">0.00</text><line x1="70" y1="128.8" x2="875" y2="128.8" class="g"/><text x="62" y="132.8" text-anchor="end" class="l">0.04</text><line x1="70" y1="55.0" x2="875" y2="55.0" class="g"/><text x="62" y="59.0" text-anchor="end" class="l">0.08</text><line x1="70" y1="202.5" x2="875" y2="202.5" class="z"/><rect x="113.7" y="188.8" width="33.6" height="13.7" rx="3" fill="#5b7ff5"/><rect x="274.7" y="187.2" width="33.6" height="15.3" rx="3" fill="#5b7ff5"/><rect x="435.7" y="146.1" width="33.6" height="56.4" rx="3" fill="#5b7ff5"/><rect x="596.7" y="187.5" width="33.6" height="15.0" rx="3" fill="#5b7ff5"/><rect x="757.7" y="202.5" width="33.6" height="10.3" rx="3" fill="#5b7ff5"/><rect x="153.7" y="155.5" width="33.6" height="47.0" rx="3" fill="#ef8354"/><rect x="314.7" y="202.2" width="33.6" height="1.0" rx="3" fill="#ef8354"/><rect x="475.7" y="186.4" width="33.6" height="16.1" rx="3" fill="#ef8354"/><rect x="636.7" y="200.4" width="33.6" height="2.1" rx="3" fill="#ef8354"/><rect x="797.7" y="199.9" width="33.6" height="2.6" rx="3" fill="#ef8354"/><text x="150.5" y="385" text-anchor="middle" class="l">Train</text><text x="311.5" y="385" text-anchor="middle" class="l">Validation</text><text x="472.5" y="385" text-anchor="middle" class="l">Holdout</text><text x="633.5" y="385" text-anchor="middle" class="l">2025</text><text x="794.5" y="385" text-anchor="middle" class="l">2026 YTD</text><rect x="70" y="410" width="12" height="12" fill="#5b7ff5"/><text x="88" y="420" class="l">Alpha</text><rect x="220" y="410" width="12" height="12" fill="#ef8354"/><text x="238" y="420" class="l">Beta</text></svg>