<svg xmlns="http://www.w3.org/2000/svg" width="850" height="430" viewBox="0 0 850 430"><style>text{font-family:Arial;fill:#202124}.t{font-size:22px;font-weight:700}.l{font-size:12px}.g{stroke:#ddd}</style><text x="425.0" y="30" text-anchor="middle" class="t">Validation Sharpe versus absolute beta</text><line x1="80.0" y1="55" x2="80.0" y2="365" class="g"/><text x="80.0" y="390" text-anchor="middle" class="l">0.000</text><line x1="265.0" y1="55" x2="265.0" y2="365" class="g"/><text x="265.0" y="390" text-anchor="middle" class="l">0.043</text><line x1="450.0" y1="55" x2="450.0" y2="365" class="g"/><text x="450.0" y="390" text-anchor="middle" class="l">0.086</text><line x1="635.0" y1="55" x2="635.0" y2="365" class="g"/><text x="635.0" y="390" text-anchor="middle" class="l">0.129</text><line x1="820.0" y1="55" x2="820.0" y2="365" class="g"/><text x="820.0" y="390" text-anchor="middle" class="l">0.172</text><line x1="80" y1="365.0" x2="820" y2="365.0" class="g"/><text x="72" y="369.0" text-anchor="end" class="l">-1.20</text><line x1="80" y1="287.5" x2="820" y2="287.5" class="g"/><text x="72" y="291.5" text-anchor="end" class="l">-0.77</text><line x1="80" y1="210.0" x2="820" y2="210.0" class="g"/><text x="72" y="214.0" text-anchor="end" class="l">-0.35</text><line x1="80" y1="132.5" x2="820" y2="132.5" class="g"/><text x="72" y="136.5" text-anchor="end" class="l">0.07</text><line x1="80" y1="55.0" x2="820" y2="55.0" class="g"/><text x="72" y="59.0" text-anchor="end" class="l">0.50</text><line x1="723.4782608695652" y1="55" x2="723.4782608695652" y2="365" stroke="#d33" stroke-dasharray="6 5"/><circle cx="105.4" cy="241.0" r="7" fill="#5b7ff5"/><text x="114.4" y="232.0" class="l">kalman innovation reversion</text><circle cx="80.0" cy="146.2" r="7" fill="#5b7ff5"/><text x="89.0" y="137.2" class="l">rolling median range reversion</text><circle cx="294.3" cy="346.2" r="7" fill="#5b7ff5"/><text x="303.3" y="337.2" class="l">kama cci reversion</text><circle cx="80.7" cy="104.3" r="7" fill="#5b7ff5"/><text x="89.7" y="95.3" class="l">liquidity exhaustion snapback</text><circle cx="89.5" cy="230.0" r="7" fill="#5b7ff5"/><text x="98.5" y="221.0" class="l">compression regime fade</text><text x="425.0" y="420" text-anchor="middle" class="l">Absolute beta</text><text x="18" y="215.0" text-anchor="middle" class="l" transform="rotate(-90 18 215.0)">Validation Sharpe</text></svg>