<svg xmlns="http://www.w3.org/2000/svg" width="900" height="430" viewBox="0 0 900 430"><style>text{font-family:Arial,sans-serif;fill:#202124}.t{font-size:22px;font-weight:700}.l{font-size:13px}.g{stroke:#ddd;stroke-width:1}.z{stroke:#555;stroke-width:1.5}</style><text x="450.0" y="30" text-anchor="middle" class="t">Manifold Sharpe by period</text><line x1="70" y1="350.0" x2="875" y2="350.0" class="g"/><text x="62" y="354.0" text-anchor="end" class="l">-2.00</text><line x1="70" y1="276.2" x2="875" y2="276.2" class="g"/><text x="62" y="280.2" text-anchor="end" class="l">-1.00</text><line x1="70" y1="202.5" x2="875" y2="202.5" class="g"/><text x="62" y="206.5" text-anchor="end" class="l">0.00</text><line x1="70" y1="128.8" x2="875" y2="128.8" class="g"/><text x="62" y="132.8" text-anchor="end" class="l">1.00</text><line x1="70" y1="55.0" x2="875" y2="55.0" class="g"/><text x="62" y="59.0" text-anchor="end" class="l">2.00</text><line x1="70" y1="202.5" x2="875" y2="202.5" class="z"/><rect x="133.7" y="167.1" width="33.6" height="35.4" rx="3" fill="#5b7ff5"/><rect x="294.7" y="185.5" width="33.6" height="17.0" rx="3" fill="#5b7ff5"/><rect x="455.7" y="135.4" width="33.6" height="67.1" rx="3" fill="#5b7ff5"/><rect x="616.7" y="98.3" width="33.6" height="104.2" rx="3" fill="#5b7ff5"/><rect x="777.7" y="202.5" width="33.6" height="128.2" rx="3" fill="#5b7ff5"/><text x="150.5" y="385" text-anchor="middle" class="l">Train</text><text x="311.5" y="385" text-anchor="middle" class="l">Validation</text><text x="472.5" y="385" text-anchor="middle" class="l">Holdout</text><text x="633.5" y="385" text-anchor="middle" class="l">2025</text><text x="794.5" y="385" text-anchor="middle" class="l">2026 YTD</text><rect x="70" y="410" width="12" height="12" fill="#5b7ff5"/><text x="88" y="420" class="l">Sharpe</text></svg>