<svg xmlns="http://www.w3.org/2000/svg" width="900" height="430" viewBox="0 0 900 430"><style>text{font-family:Arial,sans-serif;fill:#202124}.t{font-size:22px;font-weight:700}.l{font-size:13px}.g{stroke:#ddd;stroke-width:1}.z{stroke:#555;stroke-width:1.5}</style><text x="450.0" y="30" text-anchor="middle" class="t">Execution stress — holdout Sharpe</text><line x1="70" y1="350.0" x2="875" y2="350.0" class="g"/><text x="62" y="354.0" text-anchor="end" class="l">0.00</text><line x1="70" y1="276.2" x2="875" y2="276.2" class="g"/><text x="62" y="280.2" text-anchor="end" class="l">0.30</text><line x1="70" y1="202.5" x2="875" y2="202.5" class="g"/><text x="62" y="206.5" text-anchor="end" class="l">0.60</text><line x1="70" y1="128.8" x2="875" y2="128.8" class="g"/><text x="62" y="132.8" text-anchor="end" class="l">0.90</text><line x1="70" y1="55.0" x2="875" y2="55.0" class="g"/><text x="62" y="59.0" text-anchor="end" class="l">1.20</text><line x1="70" y1="350.0" x2="875" y2="350.0" class="z"/><rect x="187.4" y="126.4" width="33.6" height="223.6" rx="3" fill="#5b7ff5"/><rect x="455.7" y="130.2" width="33.6" height="219.8" rx="3" fill="#5b7ff5"/><rect x="724.0" y="125.6" width="33.6" height="224.4" rx="3" fill="#5b7ff5"/><text x="204.2" y="385" text-anchor="middle" class="l">Base</text><text x="472.5" y="385" text-anchor="middle" class="l">Double cost</text><text x="740.8" y="385" text-anchor="middle" class="l">2-bar delay</text><rect x="70" y="410" width="12" height="12" fill="#5b7ff5"/><text x="88" y="420" class="l">Sharpe</text></svg>